<svg xmlns="http://www.w3.org/2000/svg" xmlns:xlink="http://www.w3.org/1999/xlink" zoomAndPan="magnify" preserveAspectRatio="xMidYMid meet" version="1.0" viewBox="37.5 125.32 297.88 88.5"><defs><g/><clipPath id="14b1b70384"><path d="M 37.5 125.324219 L 127.5 125.324219 L 127.5 213.824219 L 37.5 213.824219 Z M 37.5 125.324219 " clip-rule="nonzero"/></clipPath></defs><g clip-path="url(#14b1b70384)"><path fill="#ffffff" d="M 53.9375 180.300781 C 48.859375 179.484375 44.433594 176.703125 41.453125 172.769531 C 41.386719 172.683594 41.320312 172.59375 41.257812 172.503906 C 39.980469 170.757812 38.988281 168.796875 38.347656 166.683594 C 38.058594 165.75 37.847656 164.789062 37.703125 163.804688 C 37.566406 162.886719 37.5 161.949219 37.5 160.992188 C 37.5 160.167969 37.554688 159.355469 37.652344 158.558594 C 37.992188 155.847656 38.882812 153.308594 40.21875 151.058594 C 41.207031 149.382812 42.445312 147.871094 43.875 146.5625 C 46.625 144.046875 50.097656 142.308594 53.9375 141.6875 L 109.359375 141.6875 C 110.777344 140.878906 111.863281 139.535156 112.328125 137.9375 C 112.496094 137.371094 112.585938 136.769531 112.585938 136.152344 L 112.585938 135.597656 C 112.585938 132.875 110.851562 130.535156 108.433594 129.628906 C 107.386719 129.476562 106.316406 129.402344 105.230469 129.402344 L 81.136719 129.402344 C 79.984375 129.402344 78.851562 129.488281 77.742188 129.652344 C 77.734375 129.652344 77.726562 129.652344 77.71875 129.65625 C 77.636719 129.667969 77.558594 129.679688 77.476562 129.695312 C 71.773438 130.609375 66.765625 133.632812 63.28125 137.9375 L 56.605469 137.9375 C 61.113281 130.84375 68.839844 125.984375 77.71875 125.429688 C 78.277344 125.394531 78.839844 125.378906 79.40625 125.378906 L 107.710938 125.378906 C 107.824219 125.378906 107.9375 125.378906 108.046875 125.382812 C 111.945312 126.453125 115.0625 128.902344 116.535156 132.019531 C 116.609375 132.179688 116.683594 132.339844 116.75 132.503906 C 117.207031 133.621094 117.457031 134.820312 117.457031 136.0625 C 117.457031 136.699219 117.390625 137.328125 117.261719 137.9375 C 116.988281 139.28125 116.417969 140.546875 115.609375 141.6875 C 114.050781 143.886719 111.601562 145.621094 108.664062 146.558594 L 53.917969 146.558594 C 53.601562 146.640625 53.292969 146.734375 52.988281 146.832031 L 52.988281 146.835938 C 52.917969 146.855469 52.851562 146.878906 52.785156 146.902344 C 52.710938 146.925781 52.644531 146.949219 52.574219 146.976562 C 50.121094 147.847656 47.953125 149.261719 46.253906 151.058594 C 44.292969 153.132812 42.945312 155.714844 42.472656 158.554688 C 42.351562 159.289062 42.289062 160.039062 42.289062 160.804688 C 42.289062 161.703125 42.375 162.589844 42.542969 163.445312 C 42.566406 163.5625 42.59375 163.683594 42.621094 163.804688 C 43.007812 165.554688 43.738281 167.195312 44.734375 168.664062 C 44.792969 168.753906 44.859375 168.839844 44.917969 168.925781 C 47.78125 172.949219 52.707031 175.613281 58.289062 175.613281 L 65.695312 175.613281 C 65.582031 175.542969 65.46875 175.476562 65.355469 175.410156 C 60.855469 172.652344 57.214844 168.613281 54.957031 163.800781 C 54.945312 163.78125 54.933594 163.757812 54.925781 163.734375 C 54.878906 163.636719 54.832031 163.539062 54.789062 163.441406 C 54.222656 162.1875 53.75 160.882812 53.378906 159.535156 C 53.289062 159.207031 53.203125 158.882812 53.125 158.550781 C 52.65625 156.566406 52.410156 154.496094 52.410156 152.367188 C 52.410156 151.929688 52.421875 151.488281 52.4375 151.054688 L 57.882812 151.054688 C 57.859375 151.488281 57.847656 151.925781 57.847656 152.367188 C 57.847656 154.507812 58.136719 156.578125 58.683594 158.550781 C 58.75 158.804688 58.824219 159.054688 58.902344 159.300781 C 59.28125 160.519531 59.761719 161.695312 60.328125 162.816406 C 60.382812 162.925781 60.4375 163.03125 60.492188 163.136719 C 60.609375 163.363281 60.730469 163.582031 60.851562 163.800781 C 62.648438 166.980469 65.171875 169.691406 68.191406 171.71875 C 68.269531 171.773438 68.347656 171.824219 68.425781 171.871094 C 70.105469 172.972656 71.929688 173.859375 73.871094 174.492188 C 73.941406 174.519531 74.007812 174.542969 74.078125 174.5625 C 75.011719 174.863281 75.96875 175.101562 76.949219 175.277344 C 77.167969 175.320312 77.386719 175.355469 77.601562 175.386719 C 77.605469 175.390625 77.609375 175.390625 77.609375 175.386719 C 77.648438 175.394531 77.679688 175.398438 77.714844 175.402344 C 78.832031 175.570312 79.972656 175.65625 81.132812 175.65625 L 86.339844 175.65625 L 86.339844 180.296875 L 80.691406 180.296875 C 79.722656 180.453125 78.730469 180.539062 77.714844 180.542969 C 77.667969 180.546875 77.617188 180.546875 77.566406 180.546875 L 57.0625 180.546875 C 55.996094 180.550781 54.949219 180.464844 53.9375 180.300781 Z M 126.34375 172.390625 C 126.324219 172.320312 126.300781 172.246094 126.273438 172.171875 C 126.261719 172.117188 126.242188 172.058594 126.222656 171.996094 C 125.621094 170.078125 124.726562 168.285156 123.59375 166.671875 C 123.53125 166.585938 123.464844 166.492188 123.398438 166.40625 C 122.730469 165.46875 121.96875 164.605469 121.144531 163.808594 C 118.339844 161.09375 114.71875 159.207031 110.6875 158.558594 L 77.71875 158.558594 L 77.71875 163.144531 L 84.234375 163.144531 C 84.945312 163.144531 85.648438 163.175781 86.339844 163.242188 C 86.695312 163.269531 87.046875 163.3125 87.394531 163.363281 C 87.398438 163.363281 87.398438 163.363281 87.398438 163.363281 C 87.667969 163.398438 87.929688 163.441406 88.195312 163.492188 C 88.195312 163.492188 88.195312 163.492188 88.199219 163.492188 C 88.710938 163.578125 89.222656 163.683594 89.722656 163.808594 C 89.902344 163.851562 90.078125 163.898438 90.253906 163.949219 C 90.324219 163.964844 90.394531 163.984375 90.460938 164.003906 C 92.550781 164.59375 94.515625 165.464844 96.316406 166.585938 C 96.394531 166.636719 96.476562 166.683594 96.554688 166.734375 C 99.894531 168.867188 102.648438 171.835938 104.515625 175.34375 C 104.578125 175.449219 106.136719 178.082031 106.527344 179.367188 C 106.542969 179.429688 107.523438 184.109375 107.523438 186.117188 C 107.523438 186.941406 107.480469 187.753906 107.394531 188.550781 L 112.316406 188.550781 C 112.367188 187.867188 112.394531 187.183594 112.394531 186.488281 C 112.394531 184.363281 112.148438 182.289062 111.679688 180.304688 C 111.613281 180.027344 111.546875 179.753906 111.472656 179.484375 C 111.457031 179.417969 111.390625 179.175781 111.371094 179.113281 C 110.988281 177.761719 110.5 176.449219 109.917969 175.1875 C 109.871094 175.089844 109.828125 174.984375 109.777344 174.890625 C 107.632812 170.375 104.277344 166.539062 100.136719 163.808594 L 109.441406 163.808594 C 113.644531 164.6875 117.214844 167.125 119.410156 170.425781 C 119.46875 170.515625 119.527344 170.605469 119.582031 170.695312 C 120.519531 172.171875 121.179688 173.816406 121.503906 175.5625 C 121.519531 175.625 121.527344 175.683594 121.535156 175.742188 C 121.550781 175.8125 121.5625 175.886719 121.570312 175.957031 C 121.675781 176.644531 121.734375 177.339844 121.734375 178.050781 C 121.734375 178.816406 121.671875 179.570312 121.546875 180.300781 C 121.007812 183.515625 119.332031 186.386719 116.914062 188.550781 C 115.476562 189.835938 113.78125 190.867188 111.910156 191.574219 C 111.898438 191.65625 73.3125 192.160156 73.042969 191.894531 L 61.746094 191.894531 C 59.917969 191.894531 58.171875 192.167969 56.566406 192.675781 C 53.726562 193.554688 51.332031 195.148438 49.726562 197.171875 C 48.914062 198.199219 48.300781 199.335938 47.933594 200.546875 C 47.683594 201.390625 47.546875 202.265625 47.546875 203.171875 C 47.546875 203.976562 47.652344 204.761719 47.855469 205.519531 L 47.859375 205.519531 C 47.898438 205.671875 47.941406 205.828125 47.992188 205.976562 C 49.132812 209.496094 52.355469 212.359375 56.558594 213.664062 C 56.675781 213.667969 56.796875 213.667969 56.910156 213.667969 L 85.214844 213.667969 C 85.59375 213.667969 85.96875 213.664062 86.339844 213.648438 C 93.371094 213.355469 99.730469 210.363281 104.410156 205.683594 C 105.949219 204.144531 107.3125 202.417969 108.445312 200.550781 L 102.496094 200.550781 C 99.191406 204.726562 94.484375 207.742188 89.09375 208.894531 L 89.089844 208.894531 C 89 208.914062 88.914062 208.929688 88.824219 208.953125 C 88.007812 209.113281 87.179688 209.238281 86.339844 209.304688 C 85.644531 209.371094 84.941406 209.402344 84.234375 209.402344 L 60.144531 209.402344 C 59.007812 209.402344 57.886719 209.320312 56.792969 209.160156 L 56.789062 209.160156 C 56.421875 209.023438 56.070312 208.855469 55.742188 208.65625 C 55.742188 208.65625 55.742188 208.65625 55.738281 208.65625 C 53.863281 207.542969 52.601562 205.503906 52.601562 203.175781 C 52.601562 202.234375 52.804688 201.347656 53.171875 200.550781 C 53.488281 199.84375 53.929688 199.210938 54.46875 198.671875 C 55.128906 198.015625 55.929688 197.496094 56.820312 197.175781 L 110.683594 197.175781 C 114.332031 196.585938 117.644531 194.988281 120.324219 192.675781 C 121.710938 191.480469 122.929688 190.09375 123.9375 188.554688 C 125.527344 186.125 126.59375 183.320312 126.972656 180.304688 C 127.066406 179.507812 127.121094 178.695312 127.121094 177.867188 C 127.125 175.964844 126.847656 174.128906 126.34375 172.390625 Z M 126.34375 172.390625 " fill-opacity="1" fill-rule="nonzero"/></g><g fill="#ffffff" fill-opacity="1"><g transform="translate(143.642896, 177.857566)"><g><path d="M 13.734375 -4.875 C 13.734375 -3.863281 13.476562 -2.96875 12.96875 -2.1875 C 12.46875 -1.414062 11.738281 -0.804688 10.78125 -0.359375 C 9.832031 0.078125 8.671875 0.296875 7.296875 0.296875 C 6.003906 0.296875 4.835938 0.0976562 3.796875 -0.296875 C 2.753906 -0.691406 1.859375 -1.242188 1.109375 -1.953125 L 2.4375 -3.4375 C 3.050781 -2.863281 3.753906 -2.410156 4.546875 -2.078125 C 5.335938 -1.742188 6.265625 -1.578125 7.328125 -1.578125 C 8.046875 -1.578125 8.71875 -1.691406 9.34375 -1.921875 C 9.96875 -2.160156 10.46875 -2.519531 10.84375 -3 C 11.226562 -3.476562 11.421875 -4.09375 11.421875 -4.84375 C 11.421875 -5.40625 11.3125 -5.882812 11.09375 -6.28125 C 10.875 -6.6875 10.484375 -7.046875 9.921875 -7.359375 C 9.359375 -7.671875 8.570312 -7.976562 7.5625 -8.28125 C 6.40625 -8.625 5.398438 -9.007812 4.546875 -9.4375 C 3.703125 -9.863281 3.046875 -10.394531 2.578125 -11.03125 C 2.109375 -11.664062 1.875 -12.445312 1.875 -13.375 C 1.875 -14.25 2.117188 -15.023438 2.609375 -15.703125 C 3.097656 -16.390625 3.769531 -16.925781 4.625 -17.3125 C 5.476562 -17.707031 6.46875 -17.90625 7.59375 -17.90625 C 8.8125 -17.90625 9.867188 -17.726562 10.765625 -17.375 C 11.671875 -17.03125 12.488281 -16.535156 13.21875 -15.890625 L 11.90625 -14.453125 C 11.28125 -15.015625 10.601562 -15.421875 9.875 -15.671875 C 9.15625 -15.921875 8.421875 -16.046875 7.671875 -16.046875 C 7.023438 -16.046875 6.4375 -15.945312 5.90625 -15.75 C 5.375 -15.5625 4.945312 -15.273438 4.625 -14.890625 C 4.300781 -14.515625 4.140625 -14.035156 4.140625 -13.453125 C 4.140625 -12.941406 4.273438 -12.503906 4.546875 -12.140625 C 4.828125 -11.773438 5.289062 -11.441406 5.9375 -11.140625 C 6.582031 -10.835938 7.46875 -10.519531 8.59375 -10.1875 C 9.5 -9.925781 10.34375 -9.59375 11.125 -9.1875 C 11.90625 -8.789062 12.535156 -8.253906 13.015625 -7.578125 C 13.492188 -6.898438 13.734375 -6 13.734375 -4.875 Z M 13.734375 -4.875 "/></g></g></g><g fill="#ffffff" fill-opacity="1"><g transform="translate(161.533292, 177.857566)"><g><path d="M 12.21875 -2.9375 C 12.21875 -2.40625 12.304688 -2.015625 12.484375 -1.765625 C 12.671875 -1.515625 12.953125 -1.332031 13.328125 -1.21875 L 12.796875 0.296875 C 12.210938 0.210938 11.703125 0.0234375 11.265625 -0.265625 C 10.835938 -0.554688 10.523438 -1 10.328125 -1.59375 C 9.835938 -0.976562 9.226562 -0.507812 8.5 -0.1875 C 7.78125 0.132812 6.984375 0.296875 6.109375 0.296875 C 4.753906 0.296875 3.6875 -0.0820312 2.90625 -0.84375 C 2.132812 -1.601562 1.75 -2.609375 1.75 -3.859375 C 1.75 -5.253906 2.289062 -6.320312 3.375 -7.0625 C 4.457031 -7.800781 6.023438 -8.171875 8.078125 -8.171875 L 10.0625 -8.171875 L 10.0625 -9.296875 C 10.0625 -10.273438 9.773438 -10.96875 9.203125 -11.375 C 8.640625 -11.78125 7.851562 -11.984375 6.84375 -11.984375 C 6.40625 -11.984375 5.882812 -11.925781 5.28125 -11.8125 C 4.6875 -11.707031 4.039062 -11.53125 3.34375 -11.28125 L 2.78125 -12.90625 C 3.601562 -13.21875 4.375 -13.4375 5.09375 -13.5625 C 5.820312 -13.6875 6.515625 -13.75 7.171875 -13.75 C 8.859375 -13.75 10.117188 -13.359375 10.953125 -12.578125 C 11.796875 -11.804688 12.21875 -10.75 12.21875 -9.40625 Z M 6.65625 -1.34375 C 7.320312 -1.34375 7.957031 -1.507812 8.5625 -1.84375 C 9.164062 -2.1875 9.664062 -2.65625 10.0625 -3.25 L 10.0625 -6.71875 L 8.109375 -6.71875 C 6.628906 -6.71875 5.582031 -6.460938 4.96875 -5.953125 C 4.363281 -5.441406 4.0625 -4.753906 4.0625 -3.890625 C 4.0625 -3.054688 4.273438 -2.421875 4.703125 -1.984375 C 5.128906 -1.554688 5.78125 -1.34375 6.65625 -1.34375 Z M 6.65625 -1.34375 "/></g></g></g><g fill="#ffffff" fill-opacity="1"><g transform="translate(179.423688, 177.857566)"><g><path d="M 4.265625 -5.96875 C 4.304688 -4.9375 4.503906 -4.085938 4.859375 -3.421875 C 5.222656 -2.765625 5.695312 -2.28125 6.28125 -1.96875 C 6.875 -1.65625 7.515625 -1.5 8.203125 -1.5 C 8.890625 -1.5 9.515625 -1.597656 10.078125 -1.796875 C 10.640625 -2.003906 11.210938 -2.3125 11.796875 -2.71875 L 12.8125 -1.296875 C 12.175781 -0.796875 11.453125 -0.40625 10.640625 -0.125 C 9.835938 0.15625 9.015625 0.296875 8.171875 0.296875 C 6.867188 0.296875 5.753906 0.00390625 4.828125 -0.578125 C 3.910156 -1.171875 3.210938 -1.992188 2.734375 -3.046875 C 2.253906 -4.097656 2.015625 -5.320312 2.015625 -6.71875 C 2.015625 -8.082031 2.253906 -9.289062 2.734375 -10.34375 C 3.222656 -11.40625 3.90625 -12.238281 4.78125 -12.84375 C 5.664062 -13.445312 6.703125 -13.75 7.890625 -13.75 C 9.023438 -13.75 10 -13.484375 10.8125 -12.953125 C 11.632812 -12.421875 12.265625 -11.660156 12.703125 -10.671875 C 13.148438 -9.691406 13.375 -8.519531 13.375 -7.15625 C 13.375 -6.925781 13.367188 -6.707031 13.359375 -6.5 C 13.347656 -6.300781 13.335938 -6.125 13.328125 -5.96875 Z M 7.921875 -11.984375 C 6.921875 -11.984375 6.085938 -11.628906 5.421875 -10.921875 C 4.753906 -10.210938 4.375 -9.117188 4.28125 -7.640625 L 11.296875 -7.640625 C 11.273438 -9.078125 10.957031 -10.160156 10.34375 -10.890625 C 9.738281 -11.617188 8.929688 -11.984375 7.921875 -11.984375 Z M 7.921875 -11.984375 "/></g></g></g><g fill="#ffffff" fill-opacity="1"><g transform="translate(197.314081, 177.857566)"><g><path d="M 10.53125 -19.171875 C 11.257812 -19.171875 11.914062 -19.101562 12.5 -18.96875 C 13.09375 -18.84375 13.648438 -18.664062 14.171875 -18.4375 L 13.484375 -16.84375 C 13.046875 -17.03125 12.582031 -17.171875 12.09375 -17.265625 C 11.613281 -17.359375 11.113281 -17.40625 10.59375 -17.40625 C 9.65625 -17.40625 8.945312 -17.21875 8.46875 -16.84375 C 8 -16.476562 7.765625 -15.921875 7.765625 -15.171875 L 7.765625 -12.421875 L 12.34375 -12.421875 L 12.109375 -10.734375 L 7.765625 -10.734375 L 7.765625 0 L 5.625 0 L 5.625 -10.734375 L 2.40625 -10.734375 L 2.40625 -12.421875 L 5.625 -12.421875 L 5.625 -15.109375 C 5.625 -15.953125 5.835938 -16.675781 6.265625 -17.28125 C 6.691406 -17.882812 7.273438 -18.347656 8.015625 -18.671875 C 8.765625 -19.003906 9.601562 -19.171875 10.53125 -19.171875 Z M 10.53125 -19.171875 "/></g></g></g><g fill="#ffffff" fill-opacity="1"><g transform="translate(215.204481, 177.857566)"><g><path d="M 4.71875 -13.46875 L 4.71875 -3.921875 C 4.71875 -3.035156 4.898438 -2.394531 5.265625 -2 C 5.640625 -1.613281 6.210938 -1.421875 6.984375 -1.421875 C 7.722656 -1.421875 8.421875 -1.628906 9.078125 -2.046875 C 9.742188 -2.472656 10.265625 -2.976562 10.640625 -3.5625 L 10.640625 -13.46875 L 12.78125 -13.46875 L 12.78125 0 L 10.953125 0 L 10.78125 -1.8125 C 10.25 -1.132812 9.59375 -0.613281 8.8125 -0.25 C 8.039062 0.113281 7.257812 0.296875 6.46875 0.296875 C 5.15625 0.296875 4.175781 -0.0507812 3.53125 -0.75 C 2.894531 -1.445312 2.578125 -2.421875 2.578125 -3.671875 L 2.578125 -13.46875 Z M 4.71875 -13.46875 "/></g></g></g><g fill="#ffffff" fill-opacity="1"><g transform="translate(233.09488, 177.857566)"><g><path d="M 7.8125 -18.90625 L 7.8125 -3.328125 C 7.8125 -2.660156 8.019531 -2.1875 8.4375 -1.90625 C 8.851562 -1.632812 9.390625 -1.5 10.046875 -1.5 C 10.453125 -1.5 10.835938 -1.539062 11.203125 -1.625 C 11.578125 -1.707031 11.945312 -1.820312 12.3125 -1.96875 L 12.890625 -0.390625 C 12.523438 -0.210938 12.070312 -0.0546875 11.53125 0.078125 C 10.988281 0.222656 10.375 0.296875 9.6875 0.296875 C 8.488281 0.296875 7.519531 -0.03125 6.78125 -0.6875 C 6.039062 -1.351562 5.671875 -2.269531 5.671875 -3.4375 L 5.671875 -17.203125 L 1.53125 -17.203125 L 1.53125 -18.90625 Z M 7.8125 -18.90625 "/></g></g></g><g fill="#ffffff" fill-opacity="1"><g transform="translate(250.985279, 177.857566)"><g><path d="M 13.75 -12.6875 C 13.75 -11.800781 13.5625 -11.03125 13.1875 -10.375 C 12.8125 -9.71875 12.296875 -9.175781 11.640625 -8.75 C 10.992188 -8.320312 10.265625 -8.007812 9.453125 -7.8125 L 14.671875 0 L 12.015625 0 L 7.203125 -7.5625 L 4.828125 -7.5625 L 4.828125 0 L 2.59375 0 L 2.59375 -17.625 L 7.125 -17.625 C 9.300781 -17.625 10.945312 -17.207031 12.0625 -16.375 C 13.1875 -15.539062 13.75 -14.3125 13.75 -12.6875 Z M 11.375 -12.6875 C 11.375 -13.820312 11.050781 -14.632812 10.40625 -15.125 C 9.757812 -15.613281 8.753906 -15.859375 7.390625 -15.859375 L 4.828125 -15.859375 L 4.828125 -9.296875 L 7.390625 -9.296875 C 8.648438 -9.296875 9.628906 -9.554688 10.328125 -10.078125 C 11.023438 -10.597656 11.375 -11.46875 11.375 -12.6875 Z M 11.375 -12.6875 "/></g></g></g><g fill="#ffffff" fill-opacity="1"><g transform="translate(268.875678, 177.857566)"><g><path d="M 11.765625 -8.890625 C 11.765625 -10.429688 11.601562 -11.660156 11.28125 -12.578125 C 10.957031 -13.503906 10.53125 -14.195312 10 -14.65625 C 9.476562 -15.113281 8.898438 -15.414062 8.265625 -15.5625 C 7.640625 -15.71875 7.023438 -15.796875 6.421875 -15.796875 L 4.34375 -15.796875 L 4.34375 -1.78125 L 6.453125 -1.78125 C 7.078125 -1.78125 7.703125 -1.878906 8.328125 -2.078125 C 8.960938 -2.273438 9.539062 -2.628906 10.0625 -3.140625 C 10.582031 -3.660156 10.992188 -4.382812 11.296875 -5.3125 C 11.609375 -6.238281 11.765625 -7.429688 11.765625 -8.890625 Z M 14.140625 -8.890625 C 14.140625 -7.046875 13.898438 -5.539062 13.421875 -4.375 C 12.941406 -3.21875 12.3125 -2.320312 11.53125 -1.6875 C 10.75 -1.050781 9.890625 -0.609375 8.953125 -0.359375 C 8.015625 -0.117188 7.09375 0 6.1875 0 L 2.140625 0 L 2.140625 -17.625 L 5.90625 -17.625 C 6.9375 -17.625 7.9375 -17.507812 8.90625 -17.28125 C 9.882812 -17.050781 10.769531 -16.625 11.5625 -16 C 12.351562 -15.382812 12.976562 -14.503906 13.4375 -13.359375 C 13.90625 -12.210938 14.140625 -10.722656 14.140625 -8.890625 Z M 14.140625 -8.890625 "/></g></g></g><g fill="#ffffff" fill-opacity="1"><g transform="translate(286.766077, 177.857566)"><g><path d="M 4.265625 -5.96875 C 4.304688 -4.9375 4.503906 -4.085938 4.859375 -3.421875 C 5.222656 -2.765625 5.695312 -2.28125 6.28125 -1.96875 C 6.875 -1.65625 7.515625 -1.5 8.203125 -1.5 C 8.890625 -1.5 9.515625 -1.597656 10.078125 -1.796875 C 10.640625 -2.003906 11.210938 -2.3125 11.796875 -2.71875 L 12.8125 -1.296875 C 12.175781 -0.796875 11.453125 -0.40625 10.640625 -0.125 C 9.835938 0.15625 9.015625 0.296875 8.171875 0.296875 C 6.867188 0.296875 5.753906 0.00390625 4.828125 -0.578125 C 3.910156 -1.171875 3.210938 -1.992188 2.734375 -3.046875 C 2.253906 -4.097656 2.015625 -5.320312 2.015625 -6.71875 C 2.015625 -8.082031 2.253906 -9.289062 2.734375 -10.34375 C 3.222656 -11.40625 3.90625 -12.238281 4.78125 -12.84375 C 5.664062 -13.445312 6.703125 -13.75 7.890625 -13.75 C 9.023438 -13.75 10 -13.484375 10.8125 -12.953125 C 11.632812 -12.421875 12.265625 -11.660156 12.703125 -10.671875 C 13.148438 -9.691406 13.375 -8.519531 13.375 -7.15625 C 13.375 -6.925781 13.367188 -6.707031 13.359375 -6.5 C 13.347656 -6.300781 13.335938 -6.125 13.328125 -5.96875 Z M 7.921875 -11.984375 C 6.921875 -11.984375 6.085938 -11.628906 5.421875 -10.921875 C 4.753906 -10.210938 4.375 -9.117188 4.28125 -7.640625 L 11.296875 -7.640625 C 11.273438 -9.078125 10.957031 -10.160156 10.34375 -10.890625 C 9.738281 -11.617188 8.929688 -11.984375 7.921875 -11.984375 Z M 7.921875 -11.984375 "/></g></g></g><g fill="#ffffff" fill-opacity="1"><g transform="translate(304.656476, 177.857566)"><g><path d="M 13.8125 -13.46875 L 8.90625 0 L 6.40625 0 L 1.546875 -13.46875 L 3.828125 -13.46875 L 7.734375 -1.953125 L 11.578125 -13.46875 Z M 13.8125 -13.46875 "/></g></g></g><g fill="#ffffff" fill-opacity="1"><g transform="translate(322.546875, 177.857566)"><g><path d="M 7.15625 -1.484375 C 8.1875 -1.484375 9 -1.675781 9.59375 -2.0625 C 10.195312 -2.457031 10.5 -2.976562 10.5 -3.625 C 10.5 -4.03125 10.425781 -4.378906 10.28125 -4.671875 C 10.132812 -4.972656 9.828125 -5.242188 9.359375 -5.484375 C 8.898438 -5.722656 8.195312 -5.960938 7.25 -6.203125 C 6.3125 -6.429688 5.5 -6.695312 4.8125 -7 C 4.125 -7.300781 3.59375 -7.695312 3.21875 -8.1875 C 2.84375 -8.675781 2.65625 -9.304688 2.65625 -10.078125 C 2.65625 -10.835938 2.867188 -11.492188 3.296875 -12.046875 C 3.722656 -12.597656 4.320312 -13.019531 5.09375 -13.3125 C 5.863281 -13.601562 6.753906 -13.75 7.765625 -13.75 C 8.847656 -13.75 9.789062 -13.609375 10.59375 -13.328125 C 11.40625 -13.046875 12.09375 -12.691406 12.65625 -12.265625 L 11.703125 -10.8125 C 11.191406 -11.164062 10.628906 -11.453125 10.015625 -11.671875 C 9.398438 -11.898438 8.660156 -12.015625 7.796875 -12.015625 C 6.734375 -12.015625 5.976562 -11.847656 5.53125 -11.515625 C 5.09375 -11.191406 4.875 -10.769531 4.875 -10.25 C 4.875 -9.851562 4.984375 -9.523438 5.203125 -9.265625 C 5.421875 -9.003906 5.789062 -8.769531 6.3125 -8.5625 C 6.832031 -8.351562 7.546875 -8.128906 8.453125 -7.890625 C 9.335938 -7.648438 10.101562 -7.367188 10.75 -7.046875 C 11.40625 -6.722656 11.914062 -6.296875 12.28125 -5.765625 C 12.644531 -5.242188 12.828125 -4.5625 12.828125 -3.71875 C 12.828125 -2.769531 12.554688 -2 12.015625 -1.40625 C 11.472656 -0.8125 10.765625 -0.378906 9.890625 -0.109375 C 9.023438 0.160156 8.113281 0.296875 7.15625 0.296875 C 5.9375 0.296875 4.894531 0.117188 4.03125 -0.234375 C 3.175781 -0.585938 2.457031 -1.015625 1.875 -1.515625 L 3.109375 -2.9375 C 3.640625 -2.507812 4.25 -2.160156 4.9375 -1.890625 C 5.625 -1.617188 6.363281 -1.484375 7.15625 -1.484375 Z M 7.15625 -1.484375 "/></g></g></g></svg>